# xmcd
#
# Track frame offsets: 
#        150
#        10582
#        21075
#        36872
#        50780
#        56230
#        70582
#        83725
#        89562
#        100582
#
# Disc length: 1538 seconds
#
# Revision: 2
# Processed by: cddbd v1.4PL0 Copyright (c) Steve Scherf et al.
# Submitted via: ExactAudioCopy v0.95a3
#
DISCID=7806000a
DTITLE=Various Artist - Country Christmas
DYEAR=2000
DGENRE=Country
TTITLE0=Eddy Arnold - Jolly Old Saint Nicholas
TTITLE1=Jim Reeves - O Little Town Of Bethlehem
TTITLE2=Lorrie Morgan - Toyland
TTITLE3=John Anderson - What Child Is This
TTITLE4=Chet Atkins - Deck The Halls
TTITLE5=Don Williams - O Come, All Ye Faitful
TTITLE6=Oak Ridge Boys - Go Tell It On The Mountain
TTITLE7=Lorne Greene - We Wish You A Merry Christmas
TTITLE8=Dottie West - The Lord's Prayer
TTITLE9=Blackwood Brothers Quartet - O Holy Night!
EXTD=KRB Music Companies
EXTT0=
EXTT1=
EXTT2=
EXTT3=
EXTT4=
EXTT5=
EXTT6=
EXTT7=
EXTT8=
EXTT9=
PLAYORDER=
